# xmcd
#
# Track frame offsets:
# 150
# 21048
# 35273
# 54378
# 79708
# 96438
# 116078
# 137833
# 172200
# 199255
# 237043
# 255105
# 278695
#
# Disc length: 4200 seconds
#
# Revision: 1
# Processed by: cddbd v1.5.1PL2 Copyright (c) Steve Scherf et al.
# Submitted via: Easy CD Ripper v2.37
#
DISCID=aa10660d
DTITLE=The Blow Monkeys - Whoops! There Goes The Neighbourhood
DYEAR=2004
DGENRE=Blues
TTITLE0=This Is Your Life - The Blow Monkeys
TTITLE1=*Wait - The Blow Monkeys
TTITLE2=No Woman Is An Island - The Blow Monkeys
TTITLE3=It Pays To Belong - The Blow Monkeys
TTITLE4=Mercy, Pity, Peace And Love - The Blow Monkeys
TTITLE5=Squaresville - The Blow Monkeys
TTITLE6=Come On Down - The Blow Monkeys
TTITLE7=Sweet Talking Rapist At Home - The Blow Monkeys
TTITLE8=Bombed Into The Stoneage - The Blow Monkeys
TTITLE9=Let's Emigrate - The Blow Monkeys
TTITLE10=The Love Of Which I Dare Not Sp - The Blow Monkeys
TTITLE11=This Is Your Life ('88) - The Blow Monkeys
TTITLE12=Squaresville (Longer) - The Blow Monkeys
EXTD=
EXTT0=
EXTT1=
EXTT2=
EXTT3=
EXTT4=
EXTT5=
EXTT6=
EXTT7=
EXTT8=
EXTT9=
EXTT10=
EXTT11=
EXTT12=
PLAYORDER=
